<?xml version="1.0" encoding="UTF-8"?>
<svg width="360px" height="360px" viewBox="0 0 360 360" version="1.1" xmlns="http://www.w3.org/2000/svg" xmlns:xlink="http://www.w3.org/1999/xlink">
    <!-- Generator: Sketch 55.2 (78181) - https://sketchapp.com -->
    <title>fontbot-4</title>
    <desc>Created with Sketch.</desc>
    <g id="fontbot-4" stroke="none" stroke-width="1" fill="none" fill-rule="evenodd">
        <g id="fontbot" transform="translate(111.000000, 66.000000)" fill-rule="nonzero">
            <path d="M68.7172414,0.0108551724 C106.653491,0.0108551724 137.406897,30.7642613 137.406897,68.7005103 L137.406897,293.528097 L0.0275862069,293.528097 L0.0275862069,68.7005103 C0.0275862069,30.7642613 30.780992,0.0108551724 68.7172414,0.0108551724 Z" id="Rectangle" fill="#DDD8FF"></path>
            <g id="eyes" transform="translate(41.406897, 43.579310)" fill="#2B2743">
                <ellipse id="left-eye" cx="11.0344828" cy="11.0486841" rx="11.0344828" ry="11.0486841"></ellipse>
                <ellipse id="right-eye" cx="46.8965517" cy="11.0486841" rx="11.0344828" ry="11.0486841"></ellipse>
            </g>
        </g>
        <path d="M150,200.3 C157.440006,200.3 167.240006,200.3 179.4,200.3 C191.559994,200.3 201.959994,200.3 210.6,200.3" id="face" stroke="#FFFFFF" stroke-width="7.2" stroke-linecap="round" stroke-linejoin="round"></path>
        <path d="M164,150.3 C162.506673,161.433333 171.820267,167 180,167 C188.179733,167 197.693327,161.433333 196.6,150.3" id="face-smile" stroke="#FFFFFF" stroke-width="4" stroke-linecap="round" stroke-linejoin="round"></path>
    </g>
</svg>